<svg width="20" height="21" viewBox="0 0 20 21" fill="none" xmlns="http://www.w3.org/2000/svg">
<path d="M9.95833 3.61442C12.25 3.61442 12.5 3.61442 13.4167 3.65609C14.25 3.69775 14.7083 3.82275 15 3.94775C15.375 4.07275 15.7083 4.32275 16 4.57275C16.2917 4.86442 16.5 5.19775 16.625 5.57275C16.75 5.86442 16.875 6.32275 16.9167 7.15609C16.9583 8.07275 16.9583 8.32275 16.9583 10.6144C16.9583 12.9061 16.9583 13.1561 16.9167 14.0728C16.875 14.9061 16.75 15.3644 16.625 15.6561C16.3333 16.4061 15.75 16.9894 15 17.2811C14.7083 17.4061 14.25 17.5311 13.4167 17.5728C12.5 17.6144 12.25 17.6144 9.95833 17.6144C7.66666 17.6144 7.41666 17.6144 6.5 17.5728C5.66666 17.5311 5.20833 17.4061 4.91666 17.2811C4.54166 17.1561 4.20833 16.9061 3.91666 16.6561C3.625 16.3644 3.41666 16.0311 3.29166 15.6561C3.16666 15.3644 3.04166 14.9061 3 14.0728C2.95833 13.1561 2.95833 12.9061 2.95833 10.6144C2.95833 8.32275 2.95833 8.07275 3 7.15609C3.04166 6.32275 3.16666 5.86442 3.29166 5.57275C3.41666 5.19775 3.66666 4.86442 3.91666 4.57275C4.20833 4.28109 4.54166 4.07275 4.91666 3.94775C5.20833 3.82275 5.66666 3.69775 6.5 3.65609C7.41666 3.61442 7.70833 3.61442 9.95833 3.61442ZM9.95833 2.07275C7.625 2.07275 7.33333 2.07275 6.41666 2.11442C5.5 2.15609 4.875 2.28109 4.33333 2.53109C3.79166 2.73942 3.29166 3.07275 2.875 3.48942C2.45833 3.90609 2.08333 4.44775 1.875 4.98942C1.66666 5.53109 1.5 6.15609 1.45833 7.07275C1.41666 7.98942 1.41666 8.28109 1.41666 10.6144C1.41666 12.9478 1.41666 13.2394 1.45833 14.1561C1.5 15.0728 1.625 15.6978 1.875 16.2394C2.08333 16.7811 2.41666 17.3228 2.875 17.7394C3.29166 18.1561 3.83333 18.5311 4.375 18.7394C4.91666 18.9478 5.54166 19.1144 6.45833 19.1561C7.375 19.1978 7.66666 19.1978 10 19.1978C12.3333 19.1978 12.625 19.1978 13.5417 19.1561C14.4583 19.1144 15.0833 18.9894 15.625 18.7394C16.7917 18.2811 17.6667 17.4061 18.125 16.2394C18.3333 15.6978 18.5 15.0728 18.5417 14.1561C18.5833 13.2394 18.5833 12.9478 18.5833 10.6144C18.5833 8.28109 18.5833 7.98942 18.5417 7.07275C18.5 6.15609 18.375 5.53109 18.125 4.98942C17.9167 4.40609 17.5833 3.90609 17.125 3.48942C16.7083 3.07275 16.1667 2.69775 15.625 2.48942C15.0833 2.28109 14.4583 2.11442 13.5417 2.07275C12.5833 2.07275 12.2917 2.07275 9.95833 2.07275Z" fill="black"/>
<path d="M9.95833 6.23926C7.54166 6.23926 5.58333 8.19759 5.58333 10.6143C5.58333 13.0309 7.54166 14.9893 9.95833 14.9893C12.375 14.9893 14.3333 13.0309 14.3333 10.6143C14.375 8.19759 12.4167 6.23926 9.95833 6.23926ZM9.95833 13.4893C8.37499 13.4893 7.125 12.1976 7.125 10.6559C7.125 9.07259 8.41666 7.82259 9.95833 7.82259C11.5417 7.82259 12.7917 9.11426 12.7917 10.6559C12.8333 12.1976 11.5417 13.4893 9.95833 13.4893Z" fill="black"/>
<path d="M14.5417 7.11458C15.117 7.11458 15.5833 6.64821 15.5833 6.07292C15.5833 5.49762 15.117 5.03125 14.5417 5.03125C13.9664 5.03125 13.5 5.49762 13.5 6.07292C13.5 6.64821 13.9664 7.11458 14.5417 7.11458Z" fill="black"/>
</svg>
