<svg width="20" height="21" viewBox="0 0 20 21" fill="none" xmlns="http://www.w3.org/2000/svg">
<path d="M15.1 5.66442C14.647 5.36876 14.2584 4.98454 13.9577 4.53487C13.6569 4.0852 13.4502 3.57935 13.35 3.04775C13.3083 2.81442 13.2833 2.57275 13.2833 2.32275H10.4167V13.8061C10.3917 14.4284 10.1272 15.0169 9.67834 15.4487C9.2295 15.8804 8.63113 16.122 8.00834 16.1228C7.69207 16.1228 7.3789 16.0605 7.08671 15.9394C6.79452 15.8184 6.52902 15.641 6.30539 15.4174C5.85374 14.9657 5.6 14.3532 5.6 13.7144C5.6 12.3894 6.68334 11.3061 8.00834 11.3061C8.25834 11.3061 8.49167 11.3478 8.71667 11.4144V8.48942C8.48334 8.45609 8.25 8.43942 8.00834 8.43942C5.1 8.43942 2.73334 10.8061 2.73334 13.7144C2.73334 15.4978 3.625 17.0811 4.98334 18.0311C5.84167 18.6311 6.88334 18.9894 8.00834 18.9894C10.9167 18.9894 13.2833 16.6228 13.2833 13.7144V7.88942C14.4083 8.69775 15.7833 9.17275 17.2667 9.17275V6.30609C16.4667 6.30609 15.725 6.06442 15.1 5.66442Z" fill="black"/>
</svg>
