<svg width="20" height="21" viewBox="0 0 20 21" fill="none" xmlns="http://www.w3.org/2000/svg">
<g clip-path="url(#clip0_1_1566)">
<path d="M19.7833 6.16044C19.7833 6.16044 19.5917 4.78544 18.9917 4.18544C18.2333 3.38544 17.3833 3.38544 16.9917 3.33544C14.2 3.13127 10 3.15627 10 3.15627C10 3.15627 5.81667 3.13127 3.025 3.33127C2.64167 3.38127 1.79167 3.38127 1.03333 4.18127C0.433333 4.78127 0.233333 6.15627 0.233333 6.15627C0.233333 6.15627 0.0333333 7.77711 0 9.38961V11.0771C0.0333333 12.6938 0.233333 14.3063 0.233333 14.3063C0.233333 14.3063 0.433333 15.6813 1.03333 16.2896C1.79167 17.0813 2.78333 17.0563 3.23333 17.1396C4.8 17.2896 9.825 17.3229 10 17.3229C10 17.3229 14.2083 17.3313 17 17.1313C17.3833 17.0813 18.2333 17.0813 18.9917 16.2813C19.5917 15.6813 19.7917 14.3063 19.7917 14.3063C19.7917 14.3063 19.9917 12.6896 20 11.0771V9.38961C19.9833 7.77711 19.7833 6.16044 19.7833 6.16044ZM7.975 13.1563V7.31461L13.3333 10.3479L7.975 13.1563Z" fill="black"/>
</g>
<defs>
<clipPath id="clip0_1_1566">
<rect width="20" height="20" fill="white" transform="translate(0 0.65625)"/>
</clipPath>
</defs>
</svg>
