<svg width="20" height="21" viewBox="0 0 20 21" fill="none" xmlns="http://www.w3.org/2000/svg">
<path d="M17.4445 2.32275H2.55556C2.00001 2.32275 1.66667 2.7672 1.66667 3.21164V17.9894C1.66667 18.545 2.11112 18.8783 2.55556 18.8783H10.5556V12.4339H8.33334V9.98942H10.5556V8.21164C10.5556 6.10053 11.8889 4.87831 13.7778 4.87831C14.6667 4.87831 15.4445 4.98942 15.6667 4.98942V7.21164H14.3333C13.3333 7.21164 13.1111 7.65609 13.1111 8.43386V9.98942H15.5556L15.2222 12.545H13.1111V18.9894H17.3333C17.8889 18.9894 18.2222 18.545 18.2222 18.1005V3.21164C18.3333 2.7672 17.8889 2.32275 17.4445 2.32275Z" fill="black"/>
</svg>
