<svg width="20" height="21" viewBox="0 0 20 21" fill="none" xmlns="http://www.w3.org/2000/svg">
<path d="M17.0555 5.32027C17.8375 4.85148 18.4381 4.10919 18.7209 3.22476C17.9891 3.65877 17.1784 3.974 16.3157 4.1439C15.6247 3.40776 14.6404 2.94775 13.551 2.94775C11.4591 2.94775 9.76318 4.64362 9.76318 6.73535C9.76318 7.0322 9.79674 7.3213 9.8613 7.59851C6.71335 7.44056 3.92242 5.93262 2.05429 3.64108C1.72825 4.20049 1.54147 4.85114 1.54147 5.54527C1.54147 6.85933 2.21021 8.01867 3.22653 8.69789C2.6056 8.67824 2.0216 8.50786 1.51088 8.22417C1.51061 8.23997 1.51061 8.25584 1.51061 8.27177C1.51061 10.107 2.81622 11.6378 4.54896 11.9858C4.2311 12.0723 3.89649 12.1186 3.55101 12.1186C3.30696 12.1186 3.06966 12.0949 2.83844 12.0507C3.3204 13.5555 4.7192 14.6505 6.37664 14.6811C5.08035 15.697 3.44715 16.3025 1.67261 16.3025C1.3669 16.3025 1.06539 16.2846 0.769066 16.2496C2.44528 17.3243 4.43625 17.9513 6.57525 17.9513C13.5421 17.9513 17.3519 12.1798 17.3519 7.17456C17.3519 7.01032 17.3482 6.84697 17.3409 6.68456C18.0809 6.15054 18.7231 5.48342 19.2309 4.72385C18.5517 5.02509 17.8217 5.2287 17.0555 5.32027Z" fill="black"/>
</svg>
